<svg version="1.1" xmlns="http://www.w3.org/2000/svg" viewBox="0 0 1712.0442329914586 615.6779165511696" width="1712.0442329914586" height="615.6779165511696">
  <!-- svg-source:excalidraw -->
  
  <defs>
    <style class="style-fonts">
      @font-face {
        font-family: "Virgil";
        src: url("https://excalidraw.com/Virgil.woff2");
      }
      @font-face {
        font-family: "Cascadia";
        src: url("https://excalidraw.com/Cascadia.woff2");
      }
    </style>
    
  </defs>
  <rect x="0" y="0" width="1712.0442329914586" height="615.6779165511696" fill="#ffffff"></rect><g stroke-linecap="round" transform="translate(423.67977798229185 250.00133326544506) rotate(0 129.2086837366396 47.43752456570587)"><path d="M0 0 C59.94 0, 119.89 0, 258.42 0 M0 0 C51.91 0, 103.81 0, 258.42 0 M258.42 0 C258.42 32.49, 258.42 64.99, 258.42 94.88 M258.42 0 C258.42 29.91, 258.42 59.81, 258.42 94.88 M258.42 94.88 C202.99 94.88, 147.56 94.88, 0 94.88 M258.42 94.88 C175.98 94.88, 93.55 94.88, 0 94.88 M0 94.88 C0 66.94, 0 39, 0 0 M0 94.88 C0 66.94, 0 39, 0 0" stroke="#000000" stroke-width="2" fill="none"></path></g><g transform="translate(479.06033671893056 280.638857831151) rotate(0 73.828125 16.799999999999955)"><text x="73.828125" y="0" font-family="Cascadia, Segoe UI Emoji" font-size="28px" fill="#000000" text-anchor="middle" style="white-space: pre;" direction="ltr" dominant-baseline="text-before-edge">Warehouse</text></g><g stroke-linecap="round" transform="translate(873.6022347044982 185.3289698140877) rotate(0 129.2086837366396 47.43752456570587)"><path d="M0 0 C79.16 0, 158.32 0, 258.42 0 M0 0 C63.76 0, 127.52 0, 258.42 0 M258.42 0 C258.42 21.75, 258.42 43.5, 258.42 94.88 M258.42 0 C258.42 34.91, 258.42 69.82, 258.42 94.88 M258.42 94.88 C195.1 94.88, 131.78 94.88, 0 94.88 M258.42 94.88 C171.84 94.88, 85.27 94.88, 0 94.88 M0 94.88 C0 66.32, 0 37.77, 0 0 M0 94.88 C0 63.36, 0 31.85, 0 0" stroke="#000000" stroke-width="2" fill="none"></path></g><g transform="translate(912.5765434411387 215.96649437979363) rotate(0 90.234375 16.799999999999955)"><text x="90.234375" y="0" font-family="Cascadia, Segoe UI Emoji" font-size="28px" fill="#000000" text-anchor="middle" style="white-space: pre;" direction="ltr" dominant-baseline="text-before-edge">ColdStorage</text></g><g stroke-linecap="round" transform="translate(1327.5004223252672 247.32590392941074) rotate(0 147 47.5)"><path d="M0 0 C75.75 0, 151.5 0, 294 0 M0 0 C76.37 0, 152.74 0, 294 0 M294 0 C294 31.98, 294 63.96, 294 95 M294 0 C294 34.12, 294 68.24, 294 95 M294 95 C185.24 95, 76.48 95, 0 95 M294 95 C218.77 95, 143.54 95, 0 95 M0 95 C0 64.54, 0 34.07, 0 0 M0 95 C0 62.51, 0 30.02, 0 0" stroke="#000000" stroke-width="2" fill="none"></path></g><g transform="translate(1351.4535473252672 278.0259039294108) rotate(0 123.046875 16.799999999999955)"><text x="123.046875" y="0" font-family="Cascadia, Segoe UI Emoji" font-size="28px" fill="#000000" text-anchor="middle" style="white-space: pre;" direction="ltr" dominant-baseline="text-before-edge">Facility&lt;Goods&gt;</text></g><g stroke-linecap="round" transform="translate(860.7893025988124 323.697970461825) rotate(0 148.5 47.5)"><path d="M0 0 C117.82 0, 235.65 0, 297 0 M0 0 C101.57 0, 203.14 0, 297 0 M297 0 C297 20.04, 297 40.07, 297 95 M297 0 C297 29.92, 297 59.83, 297 95 M297 95 C220.4 95, 143.8 95, 0 95 M297 95 C211.53 95, 126.06 95, 0 95 M0 95 C0 57.13, 0 19.25, 0 0 M0 95 C0 64.39, 0 33.79, 0 0" stroke="#000000" stroke-width="2" fill="none"></path></g><g transform="translate(878.0393025988124 354.397970461825) rotate(0 131.25 16.799999999999955)"><text x="131.25" y="0" font-family="Cascadia, Segoe UI Emoji" font-size="28px" fill="#000000" text-anchor="middle" style="white-space: pre;" direction="ltr" dominant-baseline="text-before-edge">QualityAssurance</text></g><g stroke-linecap="round"><g transform="translate(697.2712926997683 284.0264811090135) rotate(0 83.52172368515949 -26.441512301988382)"><path d="M0 0 C47.44 -15.02, 94.89 -30.04, 167.04 -52.88 M0 0 C57.68 -18.26, 115.35 -36.52, 167.04 -52.88" stroke="#000000" stroke-width="2" fill="none"></path></g><g transform="translate(697.2712926997683 284.0264811090135) rotate(0 83.52172368515949 -26.441512301988382)"><path d="M143.26 -34.59 C150.02 -39.79, 156.77 -44.98, 167.04 -52.88 M143.26 -34.59 C151.47 -40.91, 159.68 -47.22, 167.04 -52.88" stroke="#000000" stroke-width="2" fill="none"></path></g><g transform="translate(697.2712926997683 284.0264811090135) rotate(0 83.52172368515949 -26.441512301988382)"><path d="M137.07 -54.16 C145.58 -53.79, 154.1 -53.43, 167.04 -52.88 M137.07 -54.16 C147.42 -53.72, 157.77 -53.28, 167.04 -52.88" stroke="#000000" stroke-width="2" fill="none"></path></g></g><mask></mask><g stroke-linecap="round"><g transform="translate(696.8526124592954 302.1427398282797) rotate(0 78.14588120843018 34.11930360564145)"><path d="M0 0 C39 17.03, 78.01 34.06, 156.29 68.24 M0 0 C32.57 14.22, 65.14 28.44, 156.29 68.24" stroke="#000000" stroke-width="2" fill="none"></path></g><g transform="translate(696.8526124592954 302.1427398282797) rotate(0 78.14588120843018 34.11930360564145)"><path d="M126.35 66.36 C133.82 66.83, 141.29 67.3, 156.29 68.24 M126.35 66.36 C132.59 66.75, 138.83 67.14, 156.29 68.24" stroke="#000000" stroke-width="2" fill="none"></path></g><g transform="translate(696.8526124592954 302.1427398282797) rotate(0 78.14588120843018 34.11930360564145)"><path d="M134.56 47.56 C139.98 52.72, 145.41 57.88, 156.29 68.24 M134.56 47.56 C139.09 51.87, 143.62 56.18, 156.29 68.24" stroke="#000000" stroke-width="2" fill="none"></path></g></g><mask></mask><g stroke-linecap="round"><g transform="translate(1148.1350845114594 227.9028867100492) rotate(0 83.67125234246942 26.298834082095482)"><path d="M0 0 C45.24 14.22, 90.47 28.44, 167.34 52.6 M0 0 C36.15 11.36, 72.3 22.73, 167.34 52.6" stroke="#000000" stroke-width="2" fill="none"></path></g><g transform="translate(1148.1350845114594 227.9028867100492) rotate(0 83.67125234246942 26.298834082095482)"><path d="M137.37 53.93 C145.47 53.57, 153.58 53.21, 167.34 52.6 M137.37 53.93 C143.85 53.64, 150.32 53.36, 167.34 52.6" stroke="#000000" stroke-width="2" fill="none"></path></g><g transform="translate(1148.1350845114594 227.9028867100492) rotate(0 83.67125234246942 26.298834082095482)"><path d="M143.53 34.36 C149.96 39.29, 156.4 44.22, 167.34 52.6 M143.53 34.36 C148.67 38.3, 153.82 42.24, 167.34 52.6" stroke="#000000" stroke-width="2" fill="none"></path></g></g><mask></mask><g stroke-linecap="round" transform="translate(96.96115860914688 153.45414649612349) rotate(0 85.44044448424756 36.74813843748734)"><path d="M0 0 C51.39 0, 102.78 0, 170.88 0 M0 0 C54.54 0, 109.09 0, 170.88 0 M170.88 0 C170.88 24.57, 170.88 49.14, 170.88 73.5 M170.88 0 C170.88 24.69, 170.88 49.38, 170.88 73.5 M170.88 73.5 C133.44 73.5, 95.99 73.5, 0 73.5 M170.88 73.5 C132.88 73.5, 94.88 73.5, 0 73.5 M0 73.5 C0 45.92, 0 18.35, 0 0 M0 73.5 C0 51.67, 0 29.85, 0 0" stroke="#000000" stroke-width="2" fill="none"></path></g><g transform="translate(133.18285309339444 173.40228493361087) rotate(0 49.21875 16.799999999999955)"><text x="49.21875" y="0" font-family="Cascadia, Segoe UI Emoji" font-size="28px" fill="#000000" text-anchor="middle" style="white-space: pre;" direction="ltr" dominant-baseline="text-before-edge">Fruits</text></g><g stroke-linecap="round" transform="translate(96.96115860914688 260.4371999205423) rotate(0 85.44044448424756 36.74813843748734)"><path d="M0 0 C66.48 0, 132.96 0, 170.88 0 M0 0 C62.58 0, 125.15 0, 170.88 0 M170.88 0 C170.88 25.27, 170.88 50.54, 170.88 73.5 M170.88 0 C170.88 22.41, 170.88 44.81, 170.88 73.5 M170.88 73.5 C124.02 73.5, 77.17 73.5, 0 73.5 M170.88 73.5 C124.16 73.5, 77.44 73.5, 0 73.5 M0 73.5 C0 58.75, 0 44, 0 0 M0 73.5 C0 44.97, 0 16.44, 0 0" stroke="#000000" stroke-width="2" fill="none"></path></g><g transform="translate(149.58910309339444 280.3853383580297) rotate(0 32.8125 16.799999999999955)"><text x="32.8125" y="0" font-family="Cascadia, Segoe UI Emoji" font-size="28px" fill="#000000" text-anchor="middle" style="white-space: pre;" direction="ltr" dominant-baseline="text-before-edge">Meat</text></g><g stroke-linecap="round" transform="translate(96.96115860914688 367.4202533449611) rotate(0 85.44044448424756 36.74813843748734)"><path d="M0 0 C46.5 0, 93.01 0, 170.88 0 M0 0 C41.39 0, 82.78 0, 170.88 0 M170.88 0 C170.88 23.04, 170.88 46.07, 170.88 73.5 M170.88 0 C170.88 19.02, 170.88 38.04, 170.88 73.5 M170.88 73.5 C125.11 73.5, 79.34 73.5, 0 73.5 M170.88 73.5 C117.6 73.5, 64.32 73.5, 0 73.5 M0 73.5 C0 52.27, 0 31.04, 0 0 M0 73.5 C0 53.34, 0 33.18, 0 0" stroke="#000000" stroke-width="2" fill="none"></path></g><g transform="translate(133.18285309339444 387.3683917824485) rotate(0 49.21875 16.799999999999955)"><text x="49.21875" y="0" font-family="Cascadia, Segoe UI Emoji" font-size="28px" fill="#000000" text-anchor="middle" style="white-space: pre;" direction="ltr" dominant-baseline="text-before-edge">Vegies</text></g><g stroke-linecap="round" transform="translate(10 10) rotate(0 846.0221164957293 297.8389582755848)"><path d="M0 0 C445.12 0, 890.24 0, 1692.04 0 M0 0 C453.99 0, 907.98 0, 1692.04 0 M1692.04 0 C1692.04 127.48, 1692.04 254.97, 1692.04 595.68 M1692.04 0 C1692.04 209.68, 1692.04 419.37, 1692.04 595.68 M1692.04 595.68 C1268.67 595.68, 845.29 595.68, 0 595.68 M1692.04 595.68 C1256.51 595.68, 820.98 595.68, 0 595.68 M0 595.68 C0 462.06, 0 328.44, 0 0 M0 595.68 C0 425.38, 0 255.08, 0 0" stroke="#000000" stroke-width="2" fill="none"></path></g></svg>